#!OML:ASF I:\Random Stuff\random\construction\7_22_03\Session 2\subj1.ASF
:FULLY-SPECIFIED
:DEGREES
532
root -1.65302 17.7268 0.400739 -21.9038 83.9921 -28.1686
lowerback -1.38177 0.571626 1.28755
upperback -4.01796 0.868085 1.01334
thorax -3.35129 0.440285 0.30556
lowerneck -21.4787 -1.8422 0.816287
upperneck 31.7426 -3.85512 3.84489
head 14.6557 -0.752845 0.779759
rclavicle -1.12966e-014 1.83876e-015
rhumerus 44.3535 9.19621 -70.9185
rradius 107.092
rwrist -50.3064
rhand -29.3659 7.09458
rfingers 7.12502
rthumb -2.70506 -22.868
lclavicle -1.12966e-014 1.83876e-015
lhumerus -40.6501 -39.1987 111.495
lradius 66.8908
lwrist 49.8351
lhand -21.0131 64.4368
lfingers 7.12502
lthumb 5.36175 -94.349
rfemur -1.80108 17.0078 20.4374
rtibia 3.88042
rfoot -2.1002 -21.3441
rtoes -17.8009
lfemur -9.50608 -15.8057 -13.2622
ltibia 20.3995
lfoot -15.9683 16.8326
ltoes -27.4451
533
root -1.65218 17.7265 0.398982 -22.1262 84.0966 -28.3767
lowerback -1.35508 0.545641 1.2338
upperback -4.02352 0.83379 1.01868
thorax -3.37297 0.424829 0.341319
lowerneck -21.5108 -1.8423 0.893157
upperneck 31.8169 -3.85958 3.76823
head 14.6926 -0.753043 0.735233
rclavicle 1.78728e-014 1.04983e-014
rhumerus 44.294 9.18189 -70.8745
rradius 107.065
rwrist -50.148
rhand -29.3915 7.27311
rfingers 7.12502
rthumb -2.72977 -22.6892
lclavicle 1.78728e-014 1.04983e-014
lhumerus -40.6555 -39.1221 111.444
lradius 66.8851
lwrist 49.8795
lhand -20.9878 64.6497
lfingers 7.12502
lthumb 5.38609 -94.5613
rfemur -1.80721 16.9022 20.4157
rtibia 3.97474
rfoot -2.17654 -21.3606
rtoes -17.8634
lfemur -9.51418 -15.8728 -13.291
ltibia 20.3936
lfoot -15.9659 16.787
ltoes -27.3483
534
root -1.65154 17.7266 0.397649 -22.2817 84.1443 -28.5433
lowerback -1.29248 0.538166 1.2104
upperback -4.07929 0.827493 1.02987
thorax -3.46666 0.422707 0.365042
lowerneck -21.4716 -1.84766 0.885709
upperneck 31.8869 -3.85682 3.75445
head 14.7152 -0.751641 0.732977
rclavicle -8.15289e-015 -6.47293e-015
rhumerus 44.1726 9.16647 -70.864
rradius 107.035
rwrist -49.9819
rhand -29.2988 7.31451
rfingers 7.12502
rthumb -2.64026 -22.6489
lclavicle -8.15289e-015 -6.47293e-015
lhumerus -40.7781 -39.0705 111.454
lradius 66.9264
lwrist 49.9568
lhand -20.8619 64.8233
lfingers 7.12502
lthumb 5.50773 -94.7317
rfemur -1.87142 16.8511 20.4037
rtibia 4.09117
rfoot -2.24332 -21.3703
rtoes -17.6124
lfemur -9.5399 -15.8932 -13.2905
ltibia 20.385
lfoot -15.9661 16.8432
ltoes -27.6588
535
root -1.65654 17.7243 0.398605 -22.6607 84.2047 -28.8458
lowerback -1.0933 0.545336 1.17725
upperback -4.11271 0.841348 1.03558
thorax -3.61432 0.43005 0.386847
lowerneck -21.4113 -1.88789 0.822308
upperneck 31.9168 -3.90212 3.79589
head 14.719 -0.771078 0.75364
rclavicle 7.25292e-015 9.14409e-015
rhumerus 44.0409 9.09895 -70.8882
rradius 106.979
rwrist -49.7279
rhand -29.1237 7.36209
rfingers 7.12502
rthumb -2.47121 -22.6033
lclavicle 7.25292e-015 9.14409e-015
lhumerus -40.9459 -39.1725 111.519
lradius 67.0108
lwrist 50.0799
lhand -20.9692 64.9127
lfingers 7.12502
lthumb 5.40407 -94.8238
rfemur -1.80576 16.784 20.4531
rtibia 4.15032
rfoot -2.30937 -21.3962
rtoes -17.3275
lfemur -9.49366 -15.6507 -13.2842
ltibia 20.3869
lfoot -15.9207 16.5963
ltoes -28.0494
536
root -1.6604 17.7234 0.397566 -23.2481 84.3013 -29.4195
lowerback -1.04007 0.515285 1.17212
upperback -4.11633 0.802331 1.04198
thorax -3.64837 0.410658 0.396528
lowerneck -21.3563 -1.90083 0.827941
upperneck 31.8939 -3.91559 3.78309
head 14.696 -0.779153 0.744857
rclavicle 5.70691e-015 -8.31168e-015
rhumerus 43.9696 9.10172 -70.9801
rradius 106.928
rwrist -49.5244
rhand -29.1238 7.36119
rfingers 7.12502
rthumb -2.47128 -22.6042
lclavicle 5.70691e-015 -8.31168e-015
lhumerus -41.0424 -39.3404 111.542
lradius 67.0644
lwrist 50.2336
lhand -21.194 64.9512
lfingers 7.12502
lthumb 5.18702 -94.8677
rfemur -1.81488 16.6726 20.4766
rtibia 4.21414
rfoot -2.28184 -21.4125
rtoes -17.8412
lfemur -9.5275 -15.5898 -13.2703
ltibia 20.3883
lfoot -15.8382 16.4641
ltoes -28.387
537
root -1.662 17.7239 0.396153 -23.7714 84.3997 -29.9629
lowerback -1.069 0.446085 1.15759
upperback -4.11484 0.709811 1.05845
thorax -3.63094 0.36543 0.423857
lowerneck -21.3786 -1.8703 0.809613
upperneck 31.9723 -3.87386 3.80995
head 14.737 -0.756275 0.768218
rclavicle -6.28967e-017 5.90763e-015
rhumerus 43.9487 9.19461 -71.1528
rradius 106.893
rwrist -49.4422
rhand -29.203 7.16366
rfingers 7.12502
rthumb -2.5478 -22.8009
lclavicle -6.28967e-017 5.90763e-015
lhumerus -41.1185 -39.4954 111.521
lradius 67.0929
lwrist 50.3115
lhand -21.2336 64.9158
lfingers 7.12502
lthumb 5.14882 -94.8332
rfemur -1.87784 16.5609 20.4773
rtibia 4.31375
rfoot -2.25985 -21.4122
rtoes -18.2181
lfemur -9.58697 -15.6233 -13.2603
ltibia 20.3854
lfoot -15.7756 16.4151
ltoes -28.572
538
root -1.66245 17.7246 0.394892 -24.007 84.4971 -30.2072
lowerback -1.09268 0.375429 1.11462
upperback -4.11276 0.614973 1.0737
thorax -3.616 0.319888 0.465781
lowerneck -21.4051 -1.83754 0.850544
upperneck 32.0508 -3.82403 3.75648
head 14.775 -0.734727 0.749591
rclavicle 3.52959e-015 -7.98866e-015
rhumerus 43.9349 9.29713 -71.365
rradius 106.854
rwrist -49.396
rhand -29.1621 7.00378
rfingers 7.12502
rthumb -2.50822 -22.9612
lclavicle 3.52959e-015 -7.98866e-015
lhumerus -41.185 -39.6876 111.519
lradius 67.0604
lwrist 50.2917
lhand -21.083 64.9307
lfingers 7.12502
lthumb 5.29422 -94.8445
rfemur -1.87734 16.4617 20.4473
rtibia 4.32321
rfoot -2.35235 -21.4209
rtoes -17.6624
lfemur -9.62591 -15.6436 -13.2836
ltibia 20.3802
lfoot -15.7326 16.363
ltoes -28.5395
539
root -1.66344 17.7253 0.39416 -24.3327 84.6175 -30.5311
lowerback -1.10417 0.323754 1.07023
upperback -4.10644 0.545324 1.08376
thorax -3.60336 0.286776 0.502511
lowerneck -21.4674 -1.88602 0.741008
upperneck 32.2031 -3.87748 3.81468
head 14.864 -0.755564 0.785037
rclavicle 6.51935e-015 -8.02127e-016
rhumerus 43.9038 9.34998 -71.5183
rradius 106.809
rwrist -49.2684
rhand -29.0388 7.09368
rfingers 7.12502
rthumb -2.38915 -22.8727
lclavicle 6.51935e-015 -8.02127e-016
lhumerus -41.2425 -40.0211 111.588
lradius 66.9665
lwrist 50.265
lhand -21.0165 65.1106
lfingers 7.12502
lthumb 5.35842 -95.0229
rfemur -1.85178 16.3386 20.4121
rtibia 4.30584
rfoot -2.41871 -21.42
rtoes -17.4003
lfemur -9.65527 -15.7644 -13.3087
ltibia 20.3694
lfoot -15.7416 16.3356
ltoes -28.2052
540
root -1.66459 17.7265 0.393037 -24.9566 84.7282 -31.1765
lowerback -1.12805 0.290124 1.08185
upperback -4.12278 0.501072 1.0851
thorax -3.60672 0.264602 0.498395
lowerneck -21.3778 -1.93369 0.708694
upperneck 32.2019 -3.90879 3.75239
head 14.8423 -0.782816 0.759371
rclavicle 1.80343e-016 -5.71506e-016
rhumerus 43.8305 9.38264 -71.573
rradius 106.785
rwrist -48.9898
rhand -28.9506 7.23509
rfingers 7.12502
rthumb -2.30397 -22.7322
lclavicle 1.80343e-016 -5.71506e-016
lhumerus -41.3665 -40.5089 111.748
lradius 66.8408
lwrist 50.3759
lhand -21.0217 65.3917
lfingers 7.12502
lthumb 5.35338 -95.3041
rfemur -1.85494 16.2124 20.4024
rtibia 4.29465
rfoot -2.43954 -21.4136
rtoes -17.3965
lfemur -9.70327 -15.8994 -13.2938
ltibia 20.3523
lfoot -15.7499 16.3058
ltoes -27.9767
541
root -1.66618 17.7283 0.390626 -25.3948 84.8305 -31.6595
lowerback -1.16444 0.250154 1.0985
upperback -4.1563 0.44884 1.08214
thorax -3.62081 0.238372 0.487221
lowerneck -21.3517 -1.9729 0.645169
upperneck 32.2747 -3.94904 3.77579
head 14.8729 -0.801231 0.774061
rclavicle -1.67802e-015 -5.92006e-015
rhumerus 43.7261 9.48479 -71.5891
rradius 106.836
rwrist -48.5814
rhand -28.9128 7.19306
rfingers 7.12502
rthumb -2.26751 -22.7746
lclavicle -1.67802e-015 -5.92006e-015
lhumerus -41.5229 -40.9983 111.924
lradius 66.7189
lwrist 50.6067
lhand -20.9481 65.6095
lfingers 7.12502
lthumb 5.4245 -95.5201
rfemur -1.85776 16.1007 20.3701
rtibia 4.22399
rfoot -2.42983 -21.3964
rtoes -17.294
lfemur -9.7903 -15.9324 -13.2937
ltibia 20.342
lfoot -15.6714 16.2568
ltoes -28.2074
542
root -1.66802 17.7306 0.387991 -25.6505 84.9264 -31.9398
lowerback -1.19348 0.214455 1.0765
upperback -4.17292 0.401814 1.09582
thorax -3.62186 0.216196 0.514657
lowerneck -21.3739 -1.96523 0.660457
upperneck 32.4288 -3.96324 3.83228
head 14.9511 -0.789261 0.795295
rclavicle -4.21874e-015 -7.76503e-015
rhumerus 43.6417 9.62708 -71.5532
rradius 106.922
rwrist -48.2268
rhand -28.9657 7.13031
rfingers 7.12502
rthumb -2.31863 -22.8368
lclavicle -4.21874e-015 -7.76503e-015
lhumerus -41.5837 -41.4086 112.052
lradius 66.6191
lwrist 50.794
lhand -21.0048 65.618
lfingers 7.12502
lthumb 5.36969 -95.5299
rfemur -1.84386 16.0029 20.3302
rtibia 4.15384
rfoot -2.36205 -21.3578
rtoes -17.5786
lfemur -9.85384 -15.9175 -13.3155
ltibia 20.3291
lfoot -15.6255 16.1488
ltoes -28.2969
